<?xml version="1.0" encoding="iso-8859-1"?>
<!-- Generator: Adobe Illustrator 21.1.0, SVG Export Plug-In . SVG Version: 6.00 Build 0)  -->
<svg version="1.1" id="Layer_1" xmlns="http://www.w3.org/2000/svg" xmlns:xlink="http://www.w3.org/1999/xlink" x="0px" y="0px"
	 viewBox="0 0 100.354 100.352" style="enable-background:new 0 0 100.354 100.352;" xml:space="preserve">
<g>
	<path d="M42.086,72.42c7.42,0,13.457-6.037,13.457-13.457s-6.037-13.457-13.457-13.457s-13.457,6.037-13.457,13.457
		S34.666,72.42,42.086,72.42z M42.086,48.506c5.766,0,10.457,4.691,10.457,10.457S47.852,69.42,42.086,69.42
		s-10.457-4.691-10.457-10.457S36.32,48.506,42.086,48.506z"/>
	<path d="M13.884,72.42c0.829,0,1.5-0.672,1.5-1.5V47.005c0-0.829-0.671-1.5-1.5-1.5s-1.5,0.671-1.5,1.5V70.92
		C12.384,71.748,13.055,72.42,13.884,72.42z"/>
	<path d="M69.835,72.42c0.828,0,1.5-0.672,1.5-1.5V47.005c0-0.829-0.672-1.5-1.5-1.5s-1.5,0.671-1.5,1.5V70.92
		C68.335,71.748,69.007,72.42,69.835,72.42z"/>
	<path d="M93.5,20.301H22.981c-0.829,0-1.5,0.671-1.5,1.5v7.066h-6.396c-0.829,0-1.5,0.671-1.5,1.5v7.864H6.502
		c-0.829,0-1.5,0.671-1.5,1.5v38.465c0,0.828,0.671,1.5,1.5,1.5h70.521c0.828,0,1.5-0.672,1.5-1.5v-7.862h7.082
		c0.828,0,1.5-0.672,1.5-1.5v-7.069H93.5c0.828,0,1.5-0.672,1.5-1.5V21.801C95,20.972,94.328,20.301,93.5,20.301z M75.523,76.697
		H8.002V41.231h67.521V76.697z M84.105,67.334h-5.582V39.731c0-0.829-0.672-1.5-1.5-1.5H16.585v-6.364h67.521V67.334z M92,58.765
		h-4.895V30.367c0-0.829-0.672-1.5-1.5-1.5H24.481v-5.566H92V58.765z"/>
</g>
</svg>
